<svg width="60" height="55" viewBox="0 0 60 55" fill="none" xmlns="http://www.w3.org/2000/svg">
<path d="M5.45455 54.5C3.95455 54.5 2.67045 53.9713 1.60227 52.9138C0.534091 51.8563 0 50.585 0 49.1L0 16.7C0 15.215 0.534091 13.9438 1.60227 12.8863C2.67045 11.8288 3.95455 11.3 5.45455 11.3H14.0455L19.0909 5.9L35.4545 5.9V11.3H21.4773L16.5 16.7H5.45455L5.45455 49.1H49.0909V24.8H54.5455V49.1C54.5455 50.585 54.0114 51.8563 52.9432 52.9138C51.875 53.9713 50.5909 54.5 49.0909 54.5H5.45455ZM49.0909 16.7V11.3L43.6364 11.3V5.9H49.0909V0.5L54.5455 0.5V5.9L60 5.9V11.3H54.5455V16.7H49.0909ZM27.2727 45.05C30.6818 45.05 33.5795 43.8688 35.9659 41.5063C38.3523 39.1438 39.5455 36.275 39.5455 32.9C39.5455 29.525 38.3523 26.6563 35.9659 24.2938C33.5795 21.9313 30.6818 20.75 27.2727 20.75C23.8636 20.75 20.9659 21.9313 18.5795 24.2938C16.1932 26.6563 15 29.525 15 32.9C15 36.275 16.1932 39.1438 18.5795 41.5063C20.9659 43.8688 23.8636 45.05 27.2727 45.05ZM27.2727 39.65C25.3636 39.65 23.75 38.9975 22.4318 37.6925C21.1136 36.3875 20.4545 34.79 20.4545 32.9C20.4545 31.01 21.1136 29.4125 22.4318 28.1075C23.75 26.8025 25.3636 26.15 27.2727 26.15C29.1818 26.15 30.7955 26.8025 32.1136 28.1075C33.4318 29.4125 34.0909 31.01 34.0909 32.9C34.0909 34.79 33.4318 36.3875 32.1136 37.6925C30.7955 38.9975 29.1818 39.65 27.2727 39.65Z" fill="#5F6368"/>
</svg>
